<svg viewBox="0 0 1024 1024" xmlns="http://www.w3.org/2000/svg">
  <defs>
    <linearGradient id="bg" x1="0" y1="0" x2="0" y2="1">
      <stop offset="0" stop-color="#FF2D87"></stop>
      <stop offset="1" stop-color="#C8005C"></stop>
    </linearGradient>
    <linearGradient id="sheen" x1="0" y1="0" x2="0" y2="1">
      <stop offset="0" stop-color="white" stop-opacity="0.10"></stop>
      <stop offset="0.5" stop-color="white" stop-opacity="0"></stop>
    </linearGradient>
    <clipPath id="squircleClip">
      <rect x="0" y="0" width="1024" height="1024" rx="229" ry="229"></rect>
    </clipPath>
  </defs>
  <g clip-path="url(#squircleClip)">
    <rect x="0" y="0" width="1024" height="1024" fill="url(#bg)"></rect>
    <g transform="translate(12 -25)">
      <path d="M 200 200 L 740 200 L 870 330 L 870 850 Q 870 890 830 890 L 200 890 Q 160 890 160 850 L 160 240 Q 160 200 200 200 Z" fill="#FFF7EC"></path>
      <path d="M 740 200 L 870 330 L 760 330 Q 740 330 740 310 L 740 220 Q 740 200 760 200 Z" fill="#FFD0A8"></path>
      <g stroke="#FF2D87" stroke-linecap="round" stroke-width="38" opacity="0.85">
        <line x1="240" y1="440" x2="780" y2="440"></line>
        <line x1="240" y1="560" x2="780" y2="560"></line>
        <line x1="240" y1="680" x2="600" y2="680"></line>
      </g>
      <circle cx="780" cy="790" r="120" fill="#2F4FD9"></circle>
      <text x="780" y="849.5" text-anchor="middle" font-family="Inter, &#39;Helvetica Neue&#39;, Helvetica, Arial, sans-serif" font-weight="800" font-size="175" fill="#FFF7EC">Q</text>
    </g>
    <rect x="0" y="0" width="1024" height="1024" fill="url(#sheen)"></rect>
  </g>
</svg>